# xmcd
# 
# Track frame offsets:
#     182
#     11150
#     30050
#     42510
#     59392
#     69902
#     81810
#     97772
#     109330
#     124355
#     138262
#     152350
# 
# Disc length: 2180
# 
# Revision: 2
# Processed by: cddbd v1.5.2PL0 Copyright (c) Steve Scherf et al.
# Submitted via: fre:ac v1.0.31
# 
DISCID=8f08820c
DTITLE=Fred Rai - Deutsche Countrylieder
DYEAR=0
DGENRE=Country
TTITLE0=Hü-O-Ho Alter Schimmel
TTITLE1=Auch ein Pferd hat ein Recht
TTITLE2=Steppenreiter
TTITLE3=Amigo
TTITLE4=Old Strawberry
TTITLE5=Hopp, Hopp, Hopp
TTITLE6=Wer den Menschen kennt
TTITLE7=Geisterreiter
TTITLE8=Es hängt ein Pferdehalfter
TTITLE9=Ohne Pferde
TTITLE10=Der Mann mit dem Pferd
TTITLE11=Von den Blauen Bergen
EXTD=
EXTT0=
EXTT1=
EXTT2=
EXTT3=
EXTT4=
EXTT5=
EXTT6=
EXTT7=
EXTT8=
EXTT9=
EXTT10=
EXTT11=
PLAYORDER=
